<?xml version="1.0" encoding="utf-8"?>
<!-- Generator: Adobe Illustrator 23.0.3, SVG Export Plug-In . SVG Version: 6.00 Build 0)  -->
<svg version="1.1" id="Layer_1" xmlns="http://www.w3.org/2000/svg" xmlns:xlink="http://www.w3.org/1999/xlink" x="0px" y="0px"
	 viewBox="0 0 516 516" style="enable-background:new 0 0 516 516;" xml:space="preserve">
<style type="text/css">
	.st0{fill:#008CFF;}
	.st1{fill:#FFFFFF;}
</style>
<path class="st0" d="M61,0h394c33.7,0,61,27.3,61,61v394c0,33.7-27.3,61-61,61H61c-33.7,0-61-27.3-61-61V61C0,27.3,27.3,0,61,0z"/>
<path class="st1" d="M385.2,105c11.1,18.3,16.1,37.2,16.1,61c0,76-64.9,174.7-117.5,244H163.5l-48.2-288.4l105.3-10l25.6,205.2
	C270,278,299.4,217,299.4,175.4c0-22.8-3.9-38.2-10-51L385.2,105z"/>
</svg>
